<svg width="931" height="630" viewBox="0 0 931 630" fill="none" xmlns="http://www.w3.org/2000/svg">
<rect width="931" height="630" fill="white"/>
<path d="M1 5V125H830" stroke="black" stroke-dasharray="5 5"/>
<path d="M525 0V629H931" stroke="black" stroke-dasharray="5 5"/>
<rect x="38" y="37" width="556" height="126" fill="#FD6FFF" fill-opacity="0.53"/>
<g filter="url(#filter0_b)">
<path d="M321.5 340L408.536 490.75H234.464L321.5 340Z" fill="#6FFFB0" fill-opacity="0.4"/>
</g>
<path d="M764.5 357.887L767.387 355.001L764.5 352.114L761.613 355.001L764.5 357.887ZM764 -0.000732422V2.95761H765V-0.000732422H764ZM764 8.8743V14.791H765V8.8743H764ZM764 20.7077V26.6244H765V20.7077H764ZM764 32.5411V38.4578H765V32.5411H764ZM764 44.3744V50.2911H765V44.3744H764ZM764 56.2078V62.1245H765V56.2078H764ZM764 68.0412V73.9579H765V68.0412H764ZM764 79.8746V85.7913H765V79.8746H764ZM764 91.7079V97.6246H765V91.7079H764ZM764 103.541V109.458H765V103.541H764ZM764 115.375V121.291H765V115.375H764ZM764 127.208V133.125H765V127.208H764ZM764 139.041V144.958H765V139.041H764ZM764 150.875V156.792H765V150.875H764ZM764 162.708V168.625H765V162.708H764ZM764 174.542V180.458H765V174.542H764ZM764 186.375V192.292H765V186.375H764ZM764 198.208V204.125H765V198.208H764ZM764 210.042V215.958H765V210.042H764ZM764 221.875V227.792H765V221.875H764ZM764 233.708V239.625H765V233.708H764ZM764 245.542V251.459H765V245.542H764ZM764 257.375V263.292H765V257.375H764ZM764 269.209V275.125H765V269.209H764ZM764 281.042V286.959H765V281.042H764ZM764 292.875V298.792H765V292.875H764ZM764 304.709V310.625H765V304.709H764ZM764 316.542V322.459H765V316.542H764ZM764 328.375V334.292H765V328.375H764ZM764 340.209V346.126H765V340.209H764ZM764 352.042V355.001H765V352.042H764Z" fill="black"/>
<path d="M449.642 266.646C449.447 266.842 449.447 267.158 449.642 267.354L452.824 270.536C453.02 270.731 453.336 270.731 453.532 270.536C453.727 270.34 453.727 270.024 453.532 269.828L450.703 267L453.532 264.172C453.727 263.976 453.727 263.66 453.532 263.464C453.336 263.269 453.02 263.269 452.824 263.464L449.642 266.646ZM449.996 267.5H452.984V266.5H449.996V267.5ZM458.961 267.5H464.937V266.5H458.961V267.5ZM470.913 267.5H476.89V266.5H470.913V267.5ZM482.866 267.5H488.843V266.5H482.866V267.5ZM494.819 267.5H500.796V266.5H494.819V267.5ZM506.772 267.5H512.748V266.5H506.772V267.5ZM518.725 267.5H524.701V266.5H518.725V267.5ZM530.678 267.5H536.654V266.5H530.678V267.5ZM542.63 267.5H548.607V266.5H542.63V267.5ZM554.583 267.5H560.56V266.5H554.583V267.5ZM566.536 267.5H572.513V266.5H566.536V267.5ZM578.489 267.5H584.465V266.5H578.489V267.5ZM590.442 267.5H596.418V266.5H590.442V267.5ZM602.395 267.5H608.371V266.5H602.395V267.5ZM614.347 267.5H620.324V266.5H614.347V267.5ZM626.3 267.5H632.277V266.5H626.3V267.5ZM638.253 267.5H644.23V266.5H638.253V267.5ZM650.206 267.5H656.182V266.5H650.206V267.5ZM662.159 267.5H668.135V266.5H662.159V267.5ZM674.112 267.5H680.088V266.5H674.112V267.5ZM686.064 267.5H692.041V266.5H686.064V267.5ZM698.017 267.5H701.005V266.5H698.017V267.5Z" fill="black"/>
<circle cx="414.5" cy="311.5" r="217" fill="white" fill-opacity="0.4" stroke="black" stroke-dasharray="6 6"/>
<path d="M267.148 318.537L270.049 313.512L270.482 313.762L271.5 312L272.518 313.763L272.951 313.513L275.852 318.538L275.419 318.788L278.32 323.813L278.753 323.563L281.654 328.588L281.221 328.838L284.122 333.863L284.555 333.613L287.457 338.638L287.024 338.888L289.925 343.913L290.358 343.663L293.259 348.688L292.826 348.938L295.727 353.963L296.16 353.713L299.061 358.738L298.628 358.988L301.529 364.013L301.962 363.763L304.864 368.788L304.431 369.038L307.332 374.063L307.765 373.813L310.666 378.838L310.233 379.088L313.134 384.113L313.567 383.863L316.468 388.888L316.035 389.138L318.937 394.163L319.37 393.913L322.271 398.938L321.838 399.188L324.739 404.213L325.172 403.963L328.073 408.988L327.64 409.238L330.541 414.263L330.974 414.013L333.875 419.037L333.442 419.287L336.344 424.312L336.777 424.062L339.678 429.087L339.245 429.337L342.146 434.363L342.579 434.113L345.48 439.137L345.047 439.387L347.948 444.413L348.381 444.163L351.283 449.188L350.85 449.438L353.751 454.462L354.184 454.212L357.085 459.238L356.652 459.488L357.67 461.25H355.634V461.75H349.832V461.25H344.03V461.75H338.227V461.25H332.425V461.75H326.622V461.25H320.82V461.75H315.018V461.25H309.215V461.75H303.413V461.25H297.611V461.75H291.808V461.25H286.006V461.75H280.204V461.25H274.401V461.75H268.599V461.25H262.796V461.75H256.994V461.25H251.192V461.75H245.389V461.25H239.587V461.75H233.785V461.25H227.982V461.75H222.18V461.25H216.377V461.75H210.575V461.25H204.773V461.75H198.97V461.25H193.168V461.75H187.366V461.25H185.33L186.348 459.487L185.915 459.237L188.816 454.212L189.249 454.462L192.15 449.437L191.717 449.187L194.619 444.162L195.052 444.412L197.953 439.387L197.52 439.137L200.421 434.112L200.854 434.362L203.755 429.337L203.322 429.087L206.223 424.062L206.656 424.312L209.558 419.287L209.125 419.037L212.026 414.012L212.459 414.262L215.36 409.237L214.927 408.987L217.828 403.962L218.261 404.212L221.162 399.187L220.729 398.937L223.63 393.912L224.063 394.162L226.965 389.137L226.532 388.887L229.433 383.862L229.866 384.112L232.767 379.087L232.334 378.837L235.235 373.812L235.668 374.062L238.569 369.037L238.136 368.787L241.038 363.762L241.471 364.012L244.372 358.987L243.939 358.737L246.84 353.713L247.273 353.963L250.174 348.938L249.741 348.688L252.642 343.663L253.075 343.913L255.976 338.888L255.543 338.638L258.445 333.613L258.878 333.863L261.779 328.837L261.346 328.587L264.247 323.562L264.68 323.812L267.581 318.787L267.148 318.537Z" fill="white" fill-opacity="0.4" stroke="black" stroke-dasharray="6 6"/>
<defs>
<filter id="filter0_b" x="230.464" y="336" width="182.071" height="158.75" filterUnits="userSpaceOnUse" color-interpolation-filters="sRGB">
<feFlood flood-opacity="0" result="BackgroundImageFix"/>
<feGaussianBlur in="BackgroundImage" stdDeviation="2"/>
<feComposite in2="SourceAlpha" operator="in" result="effect1_backgroundBlur"/>
<feBlend mode="normal" in="SourceGraphic" in2="effect1_backgroundBlur" result="shape"/>
</filter>
</defs>
</svg>
